<mxfile host="Electron" modified="2023-11-08T14:00:18.945Z" agent="Mozilla/5.0 (Windows NT 10.0; Win64; x64) AppleWebKit/537.36 (KHTML, like Gecko) draw.io/22.0.3 Chrome/114.0.5735.289 Electron/25.8.4 Safari/537.36" etag="9Y9H_czp62I1M9dZFu_M" version="22.0.3" type="device">
  <diagram name="Page-1" id="c7488fd3-1785-93aa-aadb-54a6760d102a">
    <mxGraphModel dx="576" dy="344" grid="1" gridSize="10" guides="1" tooltips="1" connect="1" arrows="1" fold="1" page="1" pageScale="1" pageWidth="1100" pageHeight="850" background="none" math="0" shadow="0">
      <root>
        <mxCell id="0" />
        <mxCell id="1" parent="0" />
        <mxCell id="2b4e8129b02d487f-1" value="Índice de Qualidade do Fornecedor" style="swimlane;html=1;childLayout=stackLayout;horizontal=1;startSize=20;horizontalStack=0;rounded=0;shadow=0;labelBackgroundColor=none;strokeWidth=1;fontFamily=Verdana;fontSize=8;align=center;" parent="1" vertex="1">
          <mxGeometry x="60" y="50" width="1030" height="300" as="geometry" />
        </mxCell>
        <mxCell id="2b4e8129b02d487f-2" value="Usuário" style="swimlane;html=1;startSize=20;horizontal=0;" parent="2b4e8129b02d487f-1" vertex="1">
          <mxGeometry y="20" width="1030" height="280" as="geometry" />
        </mxCell>
        <mxCell id="2b4e8129b02d487f-18" style="edgeStyle=orthogonalEdgeStyle;rounded=0;html=1;labelBackgroundColor=none;startArrow=none;startFill=0;startSize=5;endArrow=classicThin;endFill=1;endSize=5;jettySize=auto;orthogonalLoop=1;strokeWidth=1;fontFamily=Verdana;fontSize=8" parent="2b4e8129b02d487f-2" source="JmNbRdcJ3HoYK0EKkl83-44" target="2b4e8129b02d487f-6" edge="1">
          <mxGeometry relative="1" as="geometry" />
        </mxCell>
        <mxCell id="2b4e8129b02d487f-5" value="" style="ellipse;whiteSpace=wrap;html=1;rounded=0;shadow=0;labelBackgroundColor=none;strokeWidth=1;fontFamily=Verdana;fontSize=8;align=center;" parent="2b4e8129b02d487f-2" vertex="1">
          <mxGeometry x="60" y="91" width="30" height="30" as="geometry" />
        </mxCell>
        <mxCell id="JmNbRdcJ3HoYK0EKkl83-2" value="" style="edgeStyle=orthogonalEdgeStyle;rounded=0;orthogonalLoop=1;jettySize=auto;html=1;" edge="1" parent="2b4e8129b02d487f-2" source="2b4e8129b02d487f-6" target="JmNbRdcJ3HoYK0EKkl83-1">
          <mxGeometry relative="1" as="geometry" />
        </mxCell>
        <mxCell id="2b4e8129b02d487f-6" value="Acessa a págiona de avaliação" style="rounded=1;whiteSpace=wrap;html=1;shadow=0;labelBackgroundColor=none;strokeWidth=1;fontFamily=Verdana;fontSize=8;align=center;" parent="2b4e8129b02d487f-2" vertex="1">
          <mxGeometry x="225" y="87.49999999999997" width="70" height="37" as="geometry" />
        </mxCell>
        <mxCell id="JmNbRdcJ3HoYK0EKkl83-20" value="" style="edgeStyle=orthogonalEdgeStyle;rounded=0;orthogonalLoop=1;jettySize=auto;html=1;" edge="1" parent="2b4e8129b02d487f-2" source="JmNbRdcJ3HoYK0EKkl83-1" target="JmNbRdcJ3HoYK0EKkl83-19">
          <mxGeometry relative="1" as="geometry" />
        </mxCell>
        <mxCell id="JmNbRdcJ3HoYK0EKkl83-1" value="Preenche o CNPJ do fornecedor" style="whiteSpace=wrap;html=1;fontSize=8;fontFamily=Verdana;rounded=1;shadow=0;labelBackgroundColor=none;strokeWidth=1;" vertex="1" parent="2b4e8129b02d487f-2">
          <mxGeometry x="336" y="87" width="77" height="38" as="geometry" />
        </mxCell>
        <mxCell id="JmNbRdcJ3HoYK0EKkl83-3" style="edgeStyle=orthogonalEdgeStyle;rounded=0;orthogonalLoop=1;jettySize=auto;html=1;exitX=0.5;exitY=1;exitDx=0;exitDy=0;" edge="1" parent="2b4e8129b02d487f-2" source="JmNbRdcJ3HoYK0EKkl83-1" target="JmNbRdcJ3HoYK0EKkl83-1">
          <mxGeometry relative="1" as="geometry" />
        </mxCell>
        <mxCell id="JmNbRdcJ3HoYK0EKkl83-26" value="" style="edgeStyle=orthogonalEdgeStyle;rounded=0;orthogonalLoop=1;jettySize=auto;html=1;" edge="1" parent="2b4e8129b02d487f-2" source="JmNbRdcJ3HoYK0EKkl83-19" target="JmNbRdcJ3HoYK0EKkl83-25">
          <mxGeometry relative="1" as="geometry" />
        </mxCell>
        <mxCell id="JmNbRdcJ3HoYK0EKkl83-40" value="" style="edgeStyle=orthogonalEdgeStyle;rounded=0;orthogonalLoop=1;jettySize=auto;html=1;" edge="1" parent="2b4e8129b02d487f-2" source="JmNbRdcJ3HoYK0EKkl83-19" target="JmNbRdcJ3HoYK0EKkl83-39">
          <mxGeometry relative="1" as="geometry" />
        </mxCell>
        <mxCell id="JmNbRdcJ3HoYK0EKkl83-19" value="&lt;font style=&quot;font-size: 24px;&quot;&gt;&lt;b style=&quot;&quot;&gt;X&lt;/b&gt;&lt;/font&gt;" style="rhombus;whiteSpace=wrap;html=1;fontSize=8;fontFamily=Verdana;rounded=1;shadow=0;labelBackgroundColor=none;strokeWidth=1;" vertex="1" parent="2b4e8129b02d487f-2">
          <mxGeometry x="499" y="83.5" width="43.5" height="45" as="geometry" />
        </mxCell>
        <mxCell id="JmNbRdcJ3HoYK0EKkl83-23" value="&lt;font style=&quot;font-size: 8px;&quot;&gt;Fornededor&lt;br&gt;Cadastrado?&lt;/font&gt;" style="strokeWidth=2;html=1;shape=mxgraph.flowchart.annotation_1;align=left;pointerEvents=1;rotation=0;" vertex="1" parent="2b4e8129b02d487f-2">
          <mxGeometry x="435" y="72" width="10" height="28.5" as="geometry" />
        </mxCell>
        <mxCell id="JmNbRdcJ3HoYK0EKkl83-30" value="" style="edgeStyle=orthogonalEdgeStyle;rounded=0;orthogonalLoop=1;jettySize=auto;html=1;" edge="1" parent="2b4e8129b02d487f-2" source="JmNbRdcJ3HoYK0EKkl83-25" target="JmNbRdcJ3HoYK0EKkl83-29">
          <mxGeometry relative="1" as="geometry" />
        </mxCell>
        <mxCell id="JmNbRdcJ3HoYK0EKkl83-25" value="Preencher dados de qualide, entrega e reclamação" style="whiteSpace=wrap;html=1;fontSize=8;fontFamily=Verdana;rounded=1;shadow=0;labelBackgroundColor=none;strokeWidth=1;" vertex="1" parent="2b4e8129b02d487f-2">
          <mxGeometry x="584.25" y="89" width="80.75" height="34" as="geometry" />
        </mxCell>
        <mxCell id="JmNbRdcJ3HoYK0EKkl83-32" value="" style="edgeStyle=orthogonalEdgeStyle;rounded=0;orthogonalLoop=1;jettySize=auto;html=1;" edge="1" parent="2b4e8129b02d487f-2" source="JmNbRdcJ3HoYK0EKkl83-29" target="JmNbRdcJ3HoYK0EKkl83-31">
          <mxGeometry relative="1" as="geometry" />
        </mxCell>
        <mxCell id="JmNbRdcJ3HoYK0EKkl83-29" value="Calcular o IQF" style="whiteSpace=wrap;html=1;fontSize=8;fontFamily=Verdana;rounded=1;shadow=0;labelBackgroundColor=none;strokeWidth=1;" vertex="1" parent="2b4e8129b02d487f-2">
          <mxGeometry x="712.38" y="89" width="79.63" height="34" as="geometry" />
        </mxCell>
        <mxCell id="JmNbRdcJ3HoYK0EKkl83-34" style="edgeStyle=orthogonalEdgeStyle;rounded=0;orthogonalLoop=1;jettySize=auto;html=1;entryX=0;entryY=0.5;entryDx=0;entryDy=0;" edge="1" parent="2b4e8129b02d487f-2" source="JmNbRdcJ3HoYK0EKkl83-31" target="JmNbRdcJ3HoYK0EKkl83-33">
          <mxGeometry relative="1" as="geometry">
            <mxPoint x="945" y="106" as="targetPoint" />
            <Array as="points">
              <mxPoint x="933" y="106" />
              <mxPoint x="933" y="107" />
            </Array>
          </mxGeometry>
        </mxCell>
        <mxCell id="JmNbRdcJ3HoYK0EKkl83-31" value="Gravar os dados" style="whiteSpace=wrap;html=1;fontSize=8;fontFamily=Verdana;rounded=1;shadow=0;labelBackgroundColor=none;strokeWidth=1;" vertex="1" parent="2b4e8129b02d487f-2">
          <mxGeometry x="842.01" y="89" width="79.63" height="34" as="geometry" />
        </mxCell>
        <mxCell id="JmNbRdcJ3HoYK0EKkl83-33" value="" style="ellipse;whiteSpace=wrap;html=1;rounded=0;shadow=0;labelBackgroundColor=none;strokeWidth=1;fontFamily=Verdana;fontSize=8;align=center;" vertex="1" parent="2b4e8129b02d487f-2">
          <mxGeometry x="975" y="91" width="30" height="30" as="geometry" />
        </mxCell>
        <mxCell id="JmNbRdcJ3HoYK0EKkl83-42" value="" style="edgeStyle=orthogonalEdgeStyle;rounded=0;orthogonalLoop=1;jettySize=auto;html=1;entryX=0.5;entryY=1;entryDx=0;entryDy=0;" edge="1" parent="2b4e8129b02d487f-2" source="JmNbRdcJ3HoYK0EKkl83-39" target="JmNbRdcJ3HoYK0EKkl83-44">
          <mxGeometry relative="1" as="geometry">
            <mxPoint x="260" y="159" as="targetPoint" />
            <Array as="points">
              <mxPoint x="155" y="216" />
            </Array>
          </mxGeometry>
        </mxCell>
        <mxCell id="JmNbRdcJ3HoYK0EKkl83-39" value="Preencher os dados do fornecedor" style="whiteSpace=wrap;html=1;fontSize=8;fontFamily=Verdana;rounded=1;shadow=0;labelBackgroundColor=none;strokeWidth=1;" vertex="1" parent="2b4e8129b02d487f-2">
          <mxGeometry x="477.75" y="201" width="84.25" height="29" as="geometry" />
        </mxCell>
        <mxCell id="JmNbRdcJ3HoYK0EKkl83-44" value="&lt;font style=&quot;font-size: 24px;&quot;&gt;&lt;b style=&quot;&quot;&gt;X&lt;/b&gt;&lt;/font&gt;" style="rhombus;whiteSpace=wrap;html=1;fontSize=8;fontFamily=Verdana;rounded=1;shadow=0;labelBackgroundColor=none;strokeWidth=1;" vertex="1" parent="2b4e8129b02d487f-2">
          <mxGeometry x="133.26" y="83.5" width="43.5" height="45" as="geometry" />
        </mxCell>
        <mxCell id="JmNbRdcJ3HoYK0EKkl83-45" value="" style="edgeStyle=orthogonalEdgeStyle;rounded=0;html=1;labelBackgroundColor=none;startArrow=none;startFill=0;startSize=5;endArrow=classicThin;endFill=1;endSize=5;jettySize=auto;orthogonalLoop=1;strokeWidth=1;fontFamily=Verdana;fontSize=8" edge="1" parent="2b4e8129b02d487f-2" source="2b4e8129b02d487f-5" target="JmNbRdcJ3HoYK0EKkl83-44">
          <mxGeometry relative="1" as="geometry">
            <mxPoint x="150" y="176" as="sourcePoint" />
            <mxPoint x="285" y="176" as="targetPoint" />
          </mxGeometry>
        </mxCell>
        <mxCell id="JmNbRdcJ3HoYK0EKkl83-71" value="&lt;span style=&quot;font-size: 8px;&quot;&gt;Sim&lt;/span&gt;" style="strokeWidth=2;html=1;shape=mxgraph.flowchart.annotation_1;align=left;pointerEvents=1;rotation=0;" vertex="1" parent="1">
          <mxGeometry x="607" y="146" width="10" height="22.5" as="geometry" />
        </mxCell>
        <mxCell id="JmNbRdcJ3HoYK0EKkl83-73" value="&lt;span style=&quot;font-size: 8px;&quot;&gt;Não&lt;/span&gt;" style="strokeWidth=2;html=1;shape=mxgraph.flowchart.annotation_1;align=left;pointerEvents=1;rotation=0;" vertex="1" parent="1">
          <mxGeometry x="590" y="220" width="10" height="22.5" as="geometry" />
        </mxCell>
      </root>
    </mxGraphModel>
  </diagram>
</mxfile>
